<svg xmlns="http://www.w3.org/2000/svg" width="1200" height="630" viewBox="0 0 1200 630" role="img" aria-label="Modapaya showcase placeholder">
  <defs>
    <linearGradient id="mp-bg" x1="0%" y1="0%" x2="100%" y2="100%">
      <stop offset="0%" stop-color="#1a1528"/>
      <stop offset="100%" stop-color="#0d0d14"/>
    </linearGradient>
    <linearGradient id="mp-accent" x1="0%" y1="0%" x2="100%" y2="0%">
      <stop offset="0%" stop-color="#6c63ff"/>
      <stop offset="100%" stop-color="#00d4aa"/>
    </linearGradient>
  </defs>
  <rect width="1200" height="630" fill="url(#mp-bg)"/>
  <rect x="48" y="48" width="1104" height="534" rx="16" fill="#12121a" stroke="#2a2840" stroke-width="2"/>
  <circle cx="88" cy="88" r="8" fill="#ff5f57" opacity="0.85"/>
  <circle cx="116" cy="88" r="8" fill="#febc2e" opacity="0.85"/>
  <circle cx="144" cy="88" r="8" fill="#28c840" opacity="0.85"/>
  <rect x="72" y="112" width="1056" height="454" rx="8" fill="#0a0a0f" stroke="#1e1e2d"/>
  <rect x="112" y="160" width="320" height="360" rx="10" fill="#16161f" stroke="#2a2a3d"/>
  <rect x="464" y="160" width="624" height="48" rx="8" fill="#1a1a25"/>
  <rect x="464" y="228" width="400" height="20" rx="4" fill="#6c63ff" opacity="0.35"/>
  <rect x="464" y="264" width="560" height="14" rx="3" fill="#2a2a3d"/>
  <rect x="464" y="292" width="520" height="14" rx="3" fill="#2a2a3d"/>
  <rect x="464" y="320" width="480" height="14" rx="3" fill="#2a2a3d"/>
  <rect x="464" y="380" width="200" height="44" rx="10" fill="url(#mp-accent)" opacity="0.9"/>
  <text x="600" y="580" text-anchor="middle" fill="#8888a0" font-family="ui-sans-serif, system-ui, sans-serif" font-size="22" font-weight="600">Modapaya ¯ Replace with live screenshot</text>
  <text x="600" y="612" text-anchor="middle" fill="#5c5c70" font-family="ui-sans-serif, system-ui, sans-serif" font-size="15">Featured marketplace view</text>
</svg>
