<svg xmlns="http://www.w3.org/2000/svg" width="1200" height="630" viewBox="0 0 1200 630" role="img" aria-label="Modapaya home placeholder">
  <defs>
    <linearGradient id="mp2-bg" x1="0%" y1="0%" x2="100%" y2="100%">
      <stop offset="0%" stop-color="#14101f"/>
      <stop offset="100%" stop-color="#0a0a0f"/>
    </linearGradient>
  </defs>
  <rect width="1200" height="630" fill="url(#mp2-bg)"/>
  <rect x="40" y="40" width="1120" height="550" rx="14" fill="#12121a" stroke="#2a2840" stroke-width="2"/>
  <rect x="60" y="72" width="1080" height="56" rx="10" fill="#0a0a0f" stroke="#1e1e2d"/>
  <rect x="88" y="90" width="140" height="20" rx="4" fill="#6c63ff" opacity="0.4"/>
  <rect x="900" y="88" width="200" height="24" rx="6" fill="#1a1a25"/>
  <rect x="60" y="148" width="1080" height="420" rx="10" fill="#0a0a0f" stroke="#1e1e2d"/>
  <rect x="100" y="188" width="520" height="280" rx="12" fill="#16161f" stroke="#2a2a3d"/>
  <rect x="660" y="200" width="440" height="28" rx="6" fill="#2a2a3d"/>
  <rect x="660" y="248" width="380" height="18" rx="4" fill="#3a3a4d"/>
  <rect x="660" y="284" width="400" height="18" rx="4" fill="#3a3a4d"/>
  <rect x="660" y="340" width="160" height="40" rx="10" fill="#00d4aa" opacity="0.35"/>
  <text x="600" y="600" text-anchor="middle" fill="#8888a0" font-family="ui-sans-serif, system-ui, sans-serif" font-size="20" font-weight="600">Homepage · Add PNG to /public/images/projects/modapaya/</text>
</svg>
